<svg width="50" height="50" viewBox="0 0 50 50" fill="none" xmlns="http://www.w3.org/2000/svg">
<path d="M50 25C50 11.1929 38.8071 0 25 0C11.1929 0 0 11.1929 0 25C0 38.8071 11.1929 50 25 50C38.8071 50 50 38.8071 50 25Z" fill="#FFCE67"/>
<path fill-rule="evenodd" clip-rule="evenodd" d="M25 48C12.2975 48 2 37.7025 2 25C2 12.2975 12.2975 2 25 2C37.7025 2 48 12.2975 48 25C48 37.7025 37.7025 48 25 48ZM25 50C11.1929 50 0 38.8071 0 25C0 11.1929 11.1929 0 25 0C38.8071 0 50 11.1929 50 25C50 38.8071 38.8071 50 25 50Z" fill="black"/>
<path d="M16 16H13V22H16V16Z" fill="black"/>
<path d="M25 16H22V22H25V16Z" fill="black"/>
<path fill-rule="evenodd" clip-rule="evenodd" d="M11.3286 31.4819C13.2856 33.7419 16.2298 35.5 20.5 35.5C24.7469 35.5 27.9182 33.7629 30.0562 31.5398C32.1534 29.359 33.2898 26.6769 33.4926 24.6493L30.5074 24.3507C30.3769 25.6564 29.5632 27.7244 27.8938 29.4602C26.2651 31.1538 23.8531 32.5 20.5 32.5C17.1702 32.5 15.031 31.1747 13.5964 29.5181C12.1172 27.8099 11.3436 25.6898 10.9552 24.1362L8.04478 24.8638C8.48972 26.6436 9.41612 29.2735 11.3286 31.4819Z" fill="black"/>
</svg>
