<svg width="50" height="50" viewBox="0 0 50 50" fill="none" xmlns="http://www.w3.org/2000/svg">
<path d="M50 25C50 38.8071 38.8071 50 25 50C11.1929 50 0 38.8071 0 25C0 11.1929 11.1929 0 25 0C38.8071 0 50 11.1929 50 25Z" fill="#FD6687"/>
<path fill-rule="evenodd" clip-rule="evenodd" d="M25 48C37.7025 48 48 37.7025 48 25C48 12.2975 37.7025 2 25 2C12.2975 2 2 12.2975 2 25C2 37.7025 12.2975 48 25 48ZM25 50C38.8071 50 50 38.8071 50 25C50 11.1929 38.8071 0 25 0C11.1929 0 0 11.1929 0 25C0 38.8071 11.1929 50 25 50Z" fill="black"/>
<path d="M34 16H37V22H34V16Z" fill="black"/>
<path d="M25 16H28V22H25V16Z" fill="black"/>
<path fill-rule="evenodd" clip-rule="evenodd" d="M38.6714 31.4819C36.7144 33.7419 33.7702 35.5 29.5 35.5C25.2531 35.5 22.0818 33.7629 19.9438 31.5398C17.8466 29.359 16.7102 26.6769 16.5074 24.6493L19.4926 24.3507C19.6231 25.6564 20.4368 27.7244 22.1062 29.4602C23.7349 31.1538 26.1469 32.5 29.5 32.5C32.8298 32.5 34.969 31.1747 36.4036 29.5181C37.8828 27.8099 38.6564 25.6898 39.0448 24.1362L41.9552 24.8638C41.5103 26.6436 40.5839 29.2735 38.6714 31.4819Z" fill="black"/>
</svg>
